<svg class="rich-terminal" viewBox="0 0 1800 1196.8" xmlns="http://www.w3.org/2000/svg">
    <!-- Generated with Rich https://www.textualize.io -->
    <style>

    @font-face {
        font-family: "Fira Code";
        src: local("FiraCode-Regular"),
                url("https://cdnjs.cloudflare.com/ajax/libs/firacode/6.2.0/woff2/FiraCode-Regular.woff2") format("woff2"),
                url("https://cdnjs.cloudflare.com/ajax/libs/firacode/6.2.0/woff/FiraCode-Regular.woff") format("woff");
        font-style: normal;
        font-weight: 400;
    }
    @font-face {
        font-family: "Fira Code";
        src: local("FiraCode-Bold"),
                url("https://cdnjs.cloudflare.com/ajax/libs/firacode/6.2.0/woff2/FiraCode-Bold.woff2") format("woff2"),
                url("https://cdnjs.cloudflare.com/ajax/libs/firacode/6.2.0/woff/FiraCode-Bold.woff") format("woff");
        font-style: bold;
        font-weight: 700;
    }

    .terminal-matrix {
        font-family: Fira Code, monospace;
        font-size: 20px;
        line-height: 24.4px;
        font-variant-east-asian: full-width;
    }

    .terminal-title {
        font-size: 18px;
        font-weight: bold;
        font-family: arial;
    }

    .terminal-r1 { fill: #e0e0e0 }
.terminal-r2 { fill: #a0a3a6 }
.terminal-r3 { fill: #c5c8c6 }
.terminal-r4 { fill: #94999c }
.terminal-r5 { fill: #ffc473;font-weight: bold }
.terminal-r6 { fill: #929292 }
.terminal-r7 { fill: #242f38 }
.terminal-r8 { fill: #8d8d8d }
.terminal-r9 { fill: #e0e0e0;font-weight: bold }
.terminal-r10 { fill: #008000;font-weight: bold }
.terminal-r11 { fill: #b47d2f;font-weight: bold }
    </style>

    <defs>
    <clipPath id="terminal-clip-terminal">
      <rect x="0" y="0" width="1780.1999999999998" height="1145.8" />
    </clipPath>
    <clipPath id="terminal-line-0">
    <rect x="0" y="1.5" width="1781.2" height="24.65"/>
            </clipPath>
<clipPath id="terminal-line-1">
    <rect x="0" y="25.9" width="1781.2" height="24.65"/>
            </clipPath>
<clipPath id="terminal-line-2">
    <rect x="0" y="50.3" width="1781.2" height="24.65"/>
            </clipPath>
<clipPath id="terminal-line-3">
    <rect x="0" y="74.7" width="1781.2" height="24.65"/>
            </clipPath>
<clipPath id="terminal-line-4">
    <rect x="0" y="99.1" width="1781.2" height="24.65"/>
            </clipPath>
<clipPath id="terminal-line-5">
    <rect x="0" y="123.5" width="1781.2" height="24.65"/>
            </clipPath>
<clipPath id="terminal-line-6">
    <rect x="0" y="147.9" width="1781.2" height="24.65"/>
            </clipPath>
<clipPath id="terminal-line-7">
    <rect x="0" y="172.3" width="1781.2" height="24.65"/>
            </clipPath>
<clipPath id="terminal-line-8">
    <rect x="0" y="196.7" width="1781.2" height="24.65"/>
            </clipPath>
<clipPath id="terminal-line-9">
    <rect x="0" y="221.1" width="1781.2" height="24.65"/>
            </clipPath>
<clipPath id="terminal-line-10">
    <rect x="0" y="245.5" width="1781.2" height="24.65"/>
            </clipPath>
<clipPath id="terminal-line-11">
    <rect x="0" y="269.9" width="1781.2" height="24.65"/>
            </clipPath>
<clipPath id="terminal-line-12">
    <rect x="0" y="294.3" width="1781.2" height="24.65"/>
            </clipPath>
<clipPath id="terminal-line-13">
    <rect x="0" y="318.7" width="1781.2" height="24.65"/>
            </clipPath>
<clipPath id="terminal-line-14">
    <rect x="0" y="343.1" width="1781.2" height="24.65"/>
            </clipPath>
<clipPath id="terminal-line-15">
    <rect x="0" y="367.5" width="1781.2" height="24.65"/>
            </clipPath>
<clipPath id="terminal-line-16">
    <rect x="0" y="391.9" width="1781.2" height="24.65"/>
            </clipPath>
<clipPath id="terminal-line-17">
    <rect x="0" y="416.3" width="1781.2" height="24.65"/>
            </clipPath>
<clipPath id="terminal-line-18">
    <rect x="0" y="440.7" width="1781.2" height="24.65"/>
            </clipPath>
<clipPath id="terminal-line-19">
    <rect x="0" y="465.1" width="1781.2" height="24.65"/>
            </clipPath>
<clipPath id="terminal-line-20">
    <rect x="0" y="489.5" width="1781.2" height="24.65"/>
            </clipPath>
<clipPath id="terminal-line-21">
    <rect x="0" y="513.9" width="1781.2" height="24.65"/>
            </clipPath>
<clipPath id="terminal-line-22">
    <rect x="0" y="538.3" width="1781.2" height="24.65"/>
            </clipPath>
<clipPath id="terminal-line-23">
    <rect x="0" y="562.7" width="1781.2" height="24.65"/>
            </clipPath>
<clipPath id="terminal-line-24">
    <rect x="0" y="587.1" width="1781.2" height="24.65"/>
            </clipPath>
<clipPath id="terminal-line-25">
    <rect x="0" y="611.5" width="1781.2" height="24.65"/>
            </clipPath>
<clipPath id="terminal-line-26">
    <rect x="0" y="635.9" width="1781.2" height="24.65"/>
            </clipPath>
<clipPath id="terminal-line-27">
    <rect x="0" y="660.3" width="1781.2" height="24.65"/>
            </clipPath>
<clipPath id="terminal-line-28">
    <rect x="0" y="684.7" width="1781.2" height="24.65"/>
            </clipPath>
<clipPath id="terminal-line-29">
    <rect x="0" y="709.1" width="1781.2" height="24.65"/>
            </clipPath>
<clipPath id="terminal-line-30">
    <rect x="0" y="733.5" width="1781.2" height="24.65"/>
            </clipPath>
<clipPath id="terminal-line-31">
    <rect x="0" y="757.9" width="1781.2" height="24.65"/>
            </clipPath>
<clipPath id="terminal-line-32">
    <rect x="0" y="782.3" width="1781.2" height="24.65"/>
            </clipPath>
<clipPath id="terminal-line-33">
    <rect x="0" y="806.7" width="1781.2" height="24.65"/>
            </clipPath>
<clipPath id="terminal-line-34">
    <rect x="0" y="831.1" width="1781.2" height="24.65"/>
            </clipPath>
<clipPath id="terminal-line-35">
    <rect x="0" y="855.5" width="1781.2" height="24.65"/>
            </clipPath>
<clipPath id="terminal-line-36">
    <rect x="0" y="879.9" width="1781.2" height="24.65"/>
            </clipPath>
<clipPath id="terminal-line-37">
    <rect x="0" y="904.3" width="1781.2" height="24.65"/>
            </clipPath>
<clipPath id="terminal-line-38">
    <rect x="0" y="928.7" width="1781.2" height="24.65"/>
            </clipPath>
<clipPath id="terminal-line-39">
    <rect x="0" y="953.1" width="1781.2" height="24.65"/>
            </clipPath>
<clipPath id="terminal-line-40">
    <rect x="0" y="977.5" width="1781.2" height="24.65"/>
            </clipPath>
<clipPath id="terminal-line-41">
    <rect x="0" y="1001.9" width="1781.2" height="24.65"/>
            </clipPath>
<clipPath id="terminal-line-42">
    <rect x="0" y="1026.3" width="1781.2" height="24.65"/>
            </clipPath>
<clipPath id="terminal-line-43">
    <rect x="0" y="1050.7" width="1781.2" height="24.65"/>
            </clipPath>
<clipPath id="terminal-line-44">
    <rect x="0" y="1075.1" width="1781.2" height="24.65"/>
            </clipPath>
<clipPath id="terminal-line-45">
    <rect x="0" y="1099.5" width="1781.2" height="24.65"/>
            </clipPath>
    </defs>

    <rect fill="#292929" stroke="rgba(255,255,255,0.35)" stroke-width="1" x="1" y="1" width="1798" height="1194.8" rx="8"/><text class="terminal-title" fill="#c5c8c6" text-anchor="middle" x="899" y="27">HeartSuite&#160;Core&#160;Secure</text>
            <g transform="translate(26,22)">
            <circle cx="0" cy="0" r="7" fill="#ff5f57"/>
            <circle cx="22" cy="0" r="7" fill="#febc2e"/>
            <circle cx="44" cy="0" r="7" fill="#28c840"/>
            </g>
        
    <g transform="translate(9, 41)" clip-path="url(#terminal-clip-terminal)">
    <rect fill="#242f38" x="0" y="1.5" width="597.8" height="24.65" shape-rendering="crispEdges"/><rect fill="#242f38" x="597.8" y="1.5" width="268.4" height="24.65" shape-rendering="crispEdges"/><rect fill="#242f38" x="866.2" y="1.5" width="36.6" height="24.65" shape-rendering="crispEdges"/><rect fill="#242f38" x="902.8" y="1.5" width="146.4" height="24.65" shape-rendering="crispEdges"/><rect fill="#242f38" x="1049.2" y="1.5" width="610" height="24.65" shape-rendering="crispEdges"/><rect fill="#242f38" x="1659.2" y="1.5" width="12.2" height="24.65" shape-rendering="crispEdges"/><rect fill="#242f38" x="1671.4" y="1.5" width="0" height="24.65" shape-rendering="crispEdges"/><rect fill="#242f38" x="1671.4" y="1.5" width="109.8" height="24.65" shape-rendering="crispEdges"/><rect fill="#242f38" x="0" y="25.9" width="12.2" height="24.65" shape-rendering="crispEdges"/><rect fill="#242f38" x="12.2" y="25.9" width="488" height="24.65" shape-rendering="crispEdges"/><rect fill="#242f38" x="500.2" y="25.9" width="1281" height="24.65" shape-rendering="crispEdges"/><rect fill="#fea62b" x="0" y="50.3" width="1781.2" height="24.65" shape-rendering="crispEdges"/><rect fill="#fea62b" x="0" y="74.7" width="610" height="24.65" shape-rendering="crispEdges"/><rect fill="#fea62b" x="610" y="74.7" width="549" height="24.65" shape-rendering="crispEdges"/><rect fill="#fea62b" x="1159" y="74.7" width="622.2" height="24.65" shape-rendering="crispEdges"/><rect fill="#fea62b" x="0" y="99.1" width="1781.2" height="24.65" shape-rendering="crispEdges"/><rect fill="#1e1e1e" x="0" y="123.5" width="12.2" height="24.65" shape-rendering="crispEdges"/><rect fill="#1e1e1e" x="12.2" y="123.5" width="146.4" height="24.65" shape-rendering="crispEdges"/><rect fill="#1e1e1e" x="158.6" y="123.5" width="1622.6" height="24.65" shape-rendering="crispEdges"/><rect fill="#121212" x="0" y="147.9" width="1781.2" height="24.65" shape-rendering="crispEdges"/><rect fill="#121212" x="0" y="172.3" width="1781.2" height="24.65" shape-rendering="crispEdges"/><rect fill="#121212" x="0" y="196.7" width="1781.2" height="24.65" shape-rendering="crispEdges"/><rect fill="#121212" x="0" y="221.1" width="1781.2" height="24.65" shape-rendering="crispEdges"/><rect fill="#121212" x="0" y="245.5" width="24.4" height="24.65" shape-rendering="crispEdges"/><rect fill="#121212" x="24.4" y="245.5" width="24.4" height="24.65" shape-rendering="crispEdges"/><rect fill="#121212" x="48.8" y="245.5" width="146.4" height="24.65" shape-rendering="crispEdges"/><rect fill="#121212" x="195.2" y="245.5" width="1561.6" height="24.65" shape-rendering="crispEdges"/><rect fill="#121212" x="1756.8" y="245.5" width="24.4" height="24.65" shape-rendering="crispEdges"/><rect fill="#121212" x="0" y="269.9" width="24.4" height="24.65" shape-rendering="crispEdges"/><rect fill="#121212" x="24.4" y="269.9" width="12.2" height="24.65" shape-rendering="crispEdges"/><rect fill="#121212" x="36.6" y="269.9" width="1708" height="24.65" shape-rendering="crispEdges"/><rect fill="#121212" x="1744.6" y="269.9" width="12.2" height="24.65" shape-rendering="crispEdges"/><rect fill="#121212" x="1756.8" y="269.9" width="24.4" height="24.65" shape-rendering="crispEdges"/><rect fill="#121212" x="0" y="294.3" width="24.4" height="24.65" shape-rendering="crispEdges"/><rect fill="#121212" x="24.4" y="294.3" width="12.2" height="24.65" shape-rendering="crispEdges"/><rect fill="#121212" x="36.6" y="294.3" width="24.4" height="24.65" shape-rendering="crispEdges"/><rect fill="#121212" x="61" y="294.3" width="256.2" height="24.65" shape-rendering="crispEdges"/><rect fill="#121212" x="317.2" y="294.3" width="1427.4" height="24.65" shape-rendering="crispEdges"/><rect fill="#121212" x="1744.6" y="294.3" width="12.2" height="24.65" shape-rendering="crispEdges"/><rect fill="#121212" x="1756.8" y="294.3" width="24.4" height="24.65" shape-rendering="crispEdges"/><rect fill="#121212" x="0" y="318.7" width="24.4" height="24.65" shape-rendering="crispEdges"/><rect fill="#121212" x="24.4" y="318.7" width="12.2" height="24.65" shape-rendering="crispEdges"/><rect fill="#121212" x="36.6" y="318.7" width="24.4" height="24.65" shape-rendering="crispEdges"/><rect fill="#121212" x="61" y="318.7" width="0" height="24.65" shape-rendering="crispEdges"/><rect fill="#121212" x="61" y="318.7" width="1683.6" height="24.65" shape-rendering="crispEdges"/><rect fill="#121212" x="1744.6" y="318.7" width="12.2" height="24.65" shape-rendering="crispEdges"/><rect fill="#121212" x="1756.8" y="318.7" width="24.4" height="24.65" shape-rendering="crispEdges"/><rect fill="#121212" x="0" y="343.1" width="24.4" height="24.65" shape-rendering="crispEdges"/><rect fill="#121212" x="24.4" y="343.1" width="12.2" height="24.65" shape-rendering="crispEdges"/><rect fill="#121212" x="36.6" y="343.1" width="24.4" height="24.65" shape-rendering="crispEdges"/><rect fill="#121212" x="61" y="343.1" width="817.4" height="24.65" shape-rendering="crispEdges"/><rect fill="#121212" x="878.4" y="343.1" width="866.2" height="24.65" shape-rendering="crispEdges"/><rect fill="#121212" x="1744.6" y="343.1" width="12.2" height="24.65" shape-rendering="crispEdges"/><rect fill="#121212" x="1756.8" y="343.1" width="24.4" height="24.65" shape-rendering="crispEdges"/><rect fill="#121212" x="0" y="367.5" width="24.4" height="24.65" shape-rendering="crispEdges"/><rect fill="#121212" x="24.4" y="367.5" width="12.2" height="24.65" shape-rendering="crispEdges"/><rect fill="#121212" x="36.6" y="367.5" width="24.4" height="24.65" shape-rendering="crispEdges"/><rect fill="#121212" x="61" y="367.5" width="890.6" height="24.65" shape-rendering="crispEdges"/><rect fill="#121212" x="951.6" y="367.5" width="793" height="24.65" shape-rendering="crispEdges"/><rect fill="#121212" x="1744.6" y="367.5" width="12.2" height="24.65" shape-rendering="crispEdges"/><rect fill="#121212" x="1756.8" y="367.5" width="24.4" height="24.65" shape-rendering="crispEdges"/><rect fill="#121212" x="0" y="391.9" width="24.4" height="24.65" shape-rendering="crispEdges"/><rect fill="#121212" x="24.4" y="391.9" width="12.2" height="24.65" shape-rendering="crispEdges"/><rect fill="#121212" x="36.6" y="391.9" width="24.4" height="24.65" shape-rendering="crispEdges"/><rect fill="#121212" x="61" y="391.9" width="0" height="24.65" shape-rendering="crispEdges"/><rect fill="#121212" x="61" y="391.9" width="1683.6" height="24.65" shape-rendering="crispEdges"/><rect fill="#121212" x="1744.6" y="391.9" width="12.2" height="24.65" shape-rendering="crispEdges"/><rect fill="#121212" x="1756.8" y="391.9" width="24.4" height="24.65" shape-rendering="crispEdges"/><rect fill="#121212" x="0" y="416.3" width="24.4" height="24.65" shape-rendering="crispEdges"/><rect fill="#121212" x="24.4" y="416.3" width="12.2" height="24.65" shape-rendering="crispEdges"/><rect fill="#121212" x="36.6" y="416.3" width="24.4" height="24.65" shape-rendering="crispEdges"/><rect fill="#121212" x="61" y="416.3" width="805.2" height="24.65" shape-rendering="crispEdges"/><rect fill="#121212" x="866.2" y="416.3" width="878.4" height="24.65" shape-rendering="crispEdges"/><rect fill="#121212" x="1744.6" y="416.3" width="12.2" height="24.65" shape-rendering="crispEdges"/><rect fill="#121212" x="1756.8" y="416.3" width="24.4" height="24.65" shape-rendering="crispEdges"/><rect fill="#121212" x="0" y="440.7" width="24.4" height="24.65" shape-rendering="crispEdges"/><rect fill="#121212" x="24.4" y="440.7" width="12.2" height="24.65" shape-rendering="crispEdges"/><rect fill="#121212" x="36.6" y="440.7" width="24.4" height="24.65" shape-rendering="crispEdges"/><rect fill="#121212" x="61" y="440.7" width="793" height="24.65" shape-rendering="crispEdges"/><rect fill="#121212" x="854" y="440.7" width="890.6" height="24.65" shape-rendering="crispEdges"/><rect fill="#121212" x="1744.6" y="440.7" width="12.2" height="24.65" shape-rendering="crispEdges"/><rect fill="#121212" x="1756.8" y="440.7" width="24.4" height="24.65" shape-rendering="crispEdges"/><rect fill="#121212" x="0" y="465.1" width="24.4" height="24.65" shape-rendering="crispEdges"/><rect fill="#121212" x="24.4" y="465.1" width="12.2" height="24.65" shape-rendering="crispEdges"/><rect fill="#121212" x="36.6" y="465.1" width="24.4" height="24.65" shape-rendering="crispEdges"/><rect fill="#121212" x="61" y="465.1" width="780.8" height="24.65" shape-rendering="crispEdges"/><rect fill="#121212" x="841.8" y="465.1" width="902.8" height="24.65" shape-rendering="crispEdges"/><rect fill="#121212" x="1744.6" y="465.1" width="12.2" height="24.65" shape-rendering="crispEdges"/><rect fill="#121212" x="1756.8" y="465.1" width="24.4" height="24.65" shape-rendering="crispEdges"/><rect fill="#121212" x="0" y="489.5" width="24.4" height="24.65" shape-rendering="crispEdges"/><rect fill="#121212" x="24.4" y="489.5" width="12.2" height="24.65" shape-rendering="crispEdges"/><rect fill="#121212" x="36.6" y="489.5" width="24.4" height="24.65" shape-rendering="crispEdges"/><rect fill="#121212" x="61" y="489.5" width="366" height="24.65" shape-rendering="crispEdges"/><rect fill="#121212" x="427" y="489.5" width="1317.6" height="24.65" shape-rendering="crispEdges"/><rect fill="#121212" x="1744.6" y="489.5" width="12.2" height="24.65" shape-rendering="crispEdges"/><rect fill="#121212" x="1756.8" y="489.5" width="24.4" height="24.65" shape-rendering="crispEdges"/><rect fill="#121212" x="0" y="513.9" width="24.4" height="24.65" shape-rendering="crispEdges"/><rect fill="#121212" x="24.4" y="513.9" width="12.2" height="24.65" shape-rendering="crispEdges"/><rect fill="#121212" x="36.6" y="513.9" width="24.4" height="24.65" shape-rendering="crispEdges"/><rect fill="#121212" x="61" y="513.9" width="0" height="24.65" shape-rendering="crispEdges"/><rect fill="#121212" x="61" y="513.9" width="1683.6" height="24.65" shape-rendering="crispEdges"/><rect fill="#121212" x="1744.6" y="513.9" width="12.2" height="24.65" shape-rendering="crispEdges"/><rect fill="#121212" x="1756.8" y="513.9" width="24.4" height="24.65" shape-rendering="crispEdges"/><rect fill="#121212" x="0" y="538.3" width="24.4" height="24.65" shape-rendering="crispEdges"/><rect fill="#121212" x="24.4" y="538.3" width="12.2" height="24.65" shape-rendering="crispEdges"/><rect fill="#121212" x="36.6" y="538.3" width="24.4" height="24.65" shape-rendering="crispEdges"/><rect fill="#121212" x="61" y="538.3" width="36.6" height="24.65" shape-rendering="crispEdges"/><rect fill="#121212" x="97.6" y="538.3" width="183" height="24.65" shape-rendering="crispEdges"/><rect fill="#121212" x="280.6" y="538.3" width="1464" height="24.65" shape-rendering="crispEdges"/><rect fill="#121212" x="1744.6" y="538.3" width="12.2" height="24.65" shape-rendering="crispEdges"/><rect fill="#121212" x="1756.8" y="538.3" width="24.4" height="24.65" shape-rendering="crispEdges"/><rect fill="#121212" x="0" y="562.7" width="24.4" height="24.65" shape-rendering="crispEdges"/><rect fill="#121212" x="24.4" y="562.7" width="12.2" height="24.65" shape-rendering="crispEdges"/><rect fill="#121212" x="36.6" y="562.7" width="1708" height="24.65" shape-rendering="crispEdges"/><rect fill="#121212" x="1744.6" y="562.7" width="12.2" height="24.65" shape-rendering="crispEdges"/><rect fill="#121212" x="1756.8" y="562.7" width="24.4" height="24.65" shape-rendering="crispEdges"/><rect fill="#121212" x="0" y="587.1" width="24.4" height="24.65" shape-rendering="crispEdges"/><rect fill="#121212" x="24.4" y="587.1" width="1732.4" height="24.65" shape-rendering="crispEdges"/><rect fill="#121212" x="1756.8" y="587.1" width="24.4" height="24.65" shape-rendering="crispEdges"/><rect fill="#121212" x="0" y="611.5" width="1781.2" height="24.65" shape-rendering="crispEdges"/><rect fill="#121212" x="0" y="635.9" width="1781.2" height="24.65" shape-rendering="crispEdges"/><rect fill="#121212" x="0" y="660.3" width="1781.2" height="24.65" shape-rendering="crispEdges"/><rect fill="#121212" x="0" y="684.7" width="1781.2" height="24.65" shape-rendering="crispEdges"/><rect fill="#121212" x="0" y="709.1" width="1781.2" height="24.65" shape-rendering="crispEdges"/><rect fill="#121212" x="0" y="733.5" width="1781.2" height="24.65" shape-rendering="crispEdges"/><rect fill="#121212" x="0" y="757.9" width="1781.2" height="24.65" shape-rendering="crispEdges"/><rect fill="#121212" x="0" y="782.3" width="1781.2" height="24.65" shape-rendering="crispEdges"/><rect fill="#121212" x="0" y="806.7" width="1781.2" height="24.65" shape-rendering="crispEdges"/><rect fill="#121212" x="0" y="831.1" width="1781.2" height="24.65" shape-rendering="crispEdges"/><rect fill="#121212" x="0" y="855.5" width="1781.2" height="24.65" shape-rendering="crispEdges"/><rect fill="#121212" x="0" y="879.9" width="1781.2" height="24.65" shape-rendering="crispEdges"/><rect fill="#121212" x="0" y="904.3" width="1781.2" height="24.65" shape-rendering="crispEdges"/><rect fill="#121212" x="0" y="928.7" width="1781.2" height="24.65" shape-rendering="crispEdges"/><rect fill="#121212" x="0" y="953.1" width="1781.2" height="24.65" shape-rendering="crispEdges"/><rect fill="#121212" x="0" y="977.5" width="1781.2" height="24.65" shape-rendering="crispEdges"/><rect fill="#121212" x="0" y="1001.9" width="1781.2" height="24.65" shape-rendering="crispEdges"/><rect fill="#121212" x="0" y="1026.3" width="1781.2" height="24.65" shape-rendering="crispEdges"/><rect fill="#121212" x="0" y="1050.7" width="1781.2" height="24.65" shape-rendering="crispEdges"/><rect fill="#121212" x="0" y="1075.1" width="1781.2" height="24.65" shape-rendering="crispEdges"/><rect fill="#121212" x="0" y="1099.5" width="1781.2" height="24.65" shape-rendering="crispEdges"/><rect fill="#242f38" x="0" y="1123.9" width="12.2" height="24.65" shape-rendering="crispEdges"/><rect fill="#242f38" x="12.2" y="1123.9" width="61" height="24.65" shape-rendering="crispEdges"/><rect fill="#242f38" x="73.2" y="1123.9" width="12.2" height="24.65" shape-rendering="crispEdges"/><rect fill="#242f38" x="85.4" y="1123.9" width="12.2" height="24.65" shape-rendering="crispEdges"/><rect fill="#242f38" x="97.6" y="1123.9" width="61" height="24.65" shape-rendering="crispEdges"/><rect fill="#242f38" x="158.6" y="1123.9" width="1622.6" height="24.65" shape-rendering="crispEdges"/>
    <g class="terminal-matrix">
    <text class="terminal-r1" x="597.8" y="20" textLength="268.4" clip-path="url(#terminal-line-0)">HeartSuite&#160;Core&#160;Secure</text><text class="terminal-r2" x="866.2" y="20" textLength="36.6" clip-path="url(#terminal-line-0)">&#160;—&#160;</text><text class="terminal-r2" x="902.8" y="20" textLength="146.4" clip-path="url(#terminal-line-0)">System&#160;Setup</text><text class="terminal-r3" x="1781.2" y="20" textLength="12.2" clip-path="url(#terminal-line-0)">
</text><text class="terminal-r4" x="12.2" y="44.4" textLength="488" clip-path="url(#terminal-line-1)">Kernel:&#160;HS&#160;&#160;&#160;&#160;Mode:&#160;Setup&#160;&#160;&#160;&#160;Lockdown:&#160;—</text><text class="terminal-r3" x="1781.2" y="44.4" textLength="12.2" clip-path="url(#terminal-line-1)">
</text><text class="terminal-r3" x="1781.2" y="68.8" textLength="12.2" clip-path="url(#terminal-line-2)">
</text><text class="terminal-r5" x="610" y="93.2" textLength="549" clip-path="url(#terminal-line-3)">SETUP&#160;MODE&#160;—&#160;logging&#160;only,&#160;nothing&#160;is&#160;blocked</text><text class="terminal-r3" x="1781.2" y="93.2" textLength="12.2" clip-path="url(#terminal-line-3)">
</text><text class="terminal-r3" x="1781.2" y="117.6" textLength="12.2" clip-path="url(#terminal-line-4)">
</text><text class="terminal-r6" x="12.2" y="142" textLength="146.4" clip-path="url(#terminal-line-5)">System&#160;Setup</text><text class="terminal-r3" x="1781.2" y="142" textLength="12.2" clip-path="url(#terminal-line-5)">
</text><text class="terminal-r3" x="1781.2" y="166.4" textLength="12.2" clip-path="url(#terminal-line-6)">
</text><text class="terminal-r7" x="0" y="190.8" textLength="1781.2" clip-path="url(#terminal-line-7)">──────────────────────────────────────────────────────────────────────────────────────────────────────────────────────────────────────────────────</text><text class="terminal-r3" x="1781.2" y="190.8" textLength="12.2" clip-path="url(#terminal-line-7)">
</text><text class="terminal-r3" x="1781.2" y="215.2" textLength="12.2" clip-path="url(#terminal-line-8)">
</text><text class="terminal-r3" x="1781.2" y="239.6" textLength="12.2" clip-path="url(#terminal-line-9)">
</text><text class="terminal-r7" x="24.4" y="264" textLength="24.4" clip-path="url(#terminal-line-10)">╭─</text><text class="terminal-r8" x="48.8" y="264" textLength="146.4" clip-path="url(#terminal-line-10)">&#160;Setup&#160;Step&#160;</text><text class="terminal-r7" x="195.2" y="264" textLength="1561.6" clip-path="url(#terminal-line-10)">───────────────────────────────────────────────────────────────────────────────────────────────────────────────────────────────╮</text><text class="terminal-r3" x="1781.2" y="264" textLength="12.2" clip-path="url(#terminal-line-10)">
</text><text class="terminal-r7" x="24.4" y="288.4" textLength="12.2" clip-path="url(#terminal-line-11)">│</text><text class="terminal-r7" x="1744.6" y="288.4" textLength="12.2" clip-path="url(#terminal-line-11)">│</text><text class="terminal-r3" x="1781.2" y="288.4" textLength="12.2" clip-path="url(#terminal-line-11)">
</text><text class="terminal-r7" x="24.4" y="312.8" textLength="12.2" clip-path="url(#terminal-line-12)">│</text><text class="terminal-r9" x="61" y="312.8" textLength="256.2" clip-path="url(#terminal-line-12)">System&#160;setup&#160;—&#160;step&#160;2</text><text class="terminal-r7" x="1744.6" y="312.8" textLength="12.2" clip-path="url(#terminal-line-12)">│</text><text class="terminal-r3" x="1781.2" y="312.8" textLength="12.2" clip-path="url(#terminal-line-12)">
</text><text class="terminal-r7" x="24.4" y="337.2" textLength="12.2" clip-path="url(#terminal-line-13)">│</text><text class="terminal-r7" x="1744.6" y="337.2" textLength="12.2" clip-path="url(#terminal-line-13)">│</text><text class="terminal-r3" x="1781.2" y="337.2" textLength="12.2" clip-path="url(#terminal-line-13)">
</text><text class="terminal-r7" x="24.4" y="361.6" textLength="12.2" clip-path="url(#terminal-line-14)">│</text><text class="terminal-r1" x="61" y="361.6" textLength="817.4" clip-path="url(#terminal-line-14)">HeartSuite&#160;captures&#160;which&#160;programs&#160;run&#160;during&#160;startup&#160;and&#160;shutdown,</text><text class="terminal-r7" x="1744.6" y="361.6" textLength="12.2" clip-path="url(#terminal-line-14)">│</text><text class="terminal-r3" x="1781.2" y="361.6" textLength="12.2" clip-path="url(#terminal-line-14)">
</text><text class="terminal-r7" x="24.4" y="386" textLength="12.2" clip-path="url(#terminal-line-15)">│</text><text class="terminal-r1" x="61" y="386" textLength="890.6" clip-path="url(#terminal-line-15)">then&#160;adds&#160;them&#160;as&#160;allowlist&#160;entries&#160;so&#160;they&#160;are&#160;permitted&#160;in&#160;Secure&#160;Mode.</text><text class="terminal-r7" x="1744.6" y="386" textLength="12.2" clip-path="url(#terminal-line-15)">│</text><text class="terminal-r3" x="1781.2" y="386" textLength="12.2" clip-path="url(#terminal-line-15)">
</text><text class="terminal-r7" x="24.4" y="410.4" textLength="12.2" clip-path="url(#terminal-line-16)">│</text><text class="terminal-r7" x="1744.6" y="410.4" textLength="12.2" clip-path="url(#terminal-line-16)">│</text><text class="terminal-r3" x="1781.2" y="410.4" textLength="12.2" clip-path="url(#terminal-line-16)">
</text><text class="terminal-r7" x="24.4" y="434.8" textLength="12.2" clip-path="url(#terminal-line-17)">│</text><text class="terminal-r1" x="61" y="434.8" textLength="805.2" clip-path="url(#terminal-line-17)">Each&#160;boot&#160;cycle&#160;may&#160;reveal&#160;new&#160;programs&#160;—&#160;shutdown&#160;handlers,&#160;timed</text><text class="terminal-r7" x="1744.6" y="434.8" textLength="12.2" clip-path="url(#terminal-line-17)">│</text><text class="terminal-r3" x="1781.2" y="434.8" textLength="12.2" clip-path="url(#terminal-line-17)">
</text><text class="terminal-r7" x="24.4" y="459.2" textLength="12.2" clip-path="url(#terminal-line-18)">│</text><text class="terminal-r1" x="61" y="459.2" textLength="793" clip-path="url(#terminal-line-18)">services,&#160;or&#160;delayed&#160;processes.&#160;&#160;This&#160;typically&#160;takes&#160;3–5&#160;cycles,</text><text class="terminal-r7" x="1744.6" y="459.2" textLength="12.2" clip-path="url(#terminal-line-18)">│</text><text class="terminal-r3" x="1781.2" y="459.2" textLength="12.2" clip-path="url(#terminal-line-18)">
</text><text class="terminal-r7" x="24.4" y="483.6" textLength="12.2" clip-path="url(#terminal-line-19)">│</text><text class="terminal-r1" x="61" y="483.6" textLength="780.8" clip-path="url(#terminal-line-19)">each&#160;followed&#160;by&#160;a&#160;reboot.&#160;&#160;The&#160;tool&#160;tracks&#160;progress&#160;and&#160;reports</text><text class="terminal-r7" x="1744.6" y="483.6" textLength="12.2" clip-path="url(#terminal-line-19)">│</text><text class="terminal-r3" x="1781.2" y="483.6" textLength="12.2" clip-path="url(#terminal-line-19)">
</text><text class="terminal-r7" x="24.4" y="508" textLength="12.2" clip-path="url(#terminal-line-20)">│</text><text class="terminal-r1" x="61" y="508" textLength="366" clip-path="url(#terminal-line-20)">when&#160;no&#160;new&#160;entries&#160;are&#160;found.</text><text class="terminal-r7" x="1744.6" y="508" textLength="12.2" clip-path="url(#terminal-line-20)">│</text><text class="terminal-r3" x="1781.2" y="508" textLength="12.2" clip-path="url(#terminal-line-20)">
</text><text class="terminal-r7" x="24.4" y="532.4" textLength="12.2" clip-path="url(#terminal-line-21)">│</text><text class="terminal-r7" x="1744.6" y="532.4" textLength="12.2" clip-path="url(#terminal-line-21)">│</text><text class="terminal-r3" x="1781.2" y="532.4" textLength="12.2" clip-path="url(#terminal-line-21)">
</text><text class="terminal-r7" x="24.4" y="556.8" textLength="12.2" clip-path="url(#terminal-line-22)">│</text><text class="terminal-r10" x="61" y="556.8" textLength="36.6" clip-path="url(#terminal-line-22)">[a]</text><text class="terminal-r1" x="97.6" y="556.8" textLength="183" clip-path="url(#terminal-line-22)">&#160;Run&#160;setup&#160;step</text><text class="terminal-r7" x="1744.6" y="556.8" textLength="12.2" clip-path="url(#terminal-line-22)">│</text><text class="terminal-r3" x="1781.2" y="556.8" textLength="12.2" clip-path="url(#terminal-line-22)">
</text><text class="terminal-r7" x="24.4" y="581.2" textLength="12.2" clip-path="url(#terminal-line-23)">│</text><text class="terminal-r7" x="1744.6" y="581.2" textLength="12.2" clip-path="url(#terminal-line-23)">│</text><text class="terminal-r3" x="1781.2" y="581.2" textLength="12.2" clip-path="url(#terminal-line-23)">
</text><text class="terminal-r7" x="24.4" y="605.6" textLength="1732.4" clip-path="url(#terminal-line-24)">╰────────────────────────────────────────────────────────────────────────────────────────────────────────────────────────────────────────────╯</text><text class="terminal-r3" x="1781.2" y="605.6" textLength="12.2" clip-path="url(#terminal-line-24)">
</text><text class="terminal-r3" x="1781.2" y="630" textLength="12.2" clip-path="url(#terminal-line-25)">
</text><text class="terminal-r3" x="1781.2" y="654.4" textLength="12.2" clip-path="url(#terminal-line-26)">
</text><text class="terminal-r3" x="1781.2" y="678.8" textLength="12.2" clip-path="url(#terminal-line-27)">
</text><text class="terminal-r3" x="1781.2" y="703.2" textLength="12.2" clip-path="url(#terminal-line-28)">
</text><text class="terminal-r3" x="1781.2" y="727.6" textLength="12.2" clip-path="url(#terminal-line-29)">
</text><text class="terminal-r3" x="1781.2" y="752" textLength="12.2" clip-path="url(#terminal-line-30)">
</text><text class="terminal-r3" x="1781.2" y="776.4" textLength="12.2" clip-path="url(#terminal-line-31)">
</text><text class="terminal-r3" x="1781.2" y="800.8" textLength="12.2" clip-path="url(#terminal-line-32)">
</text><text class="terminal-r3" x="1781.2" y="825.2" textLength="12.2" clip-path="url(#terminal-line-33)">
</text><text class="terminal-r3" x="1781.2" y="849.6" textLength="12.2" clip-path="url(#terminal-line-34)">
</text><text class="terminal-r3" x="1781.2" y="874" textLength="12.2" clip-path="url(#terminal-line-35)">
</text><text class="terminal-r3" x="1781.2" y="898.4" textLength="12.2" clip-path="url(#terminal-line-36)">
</text><text class="terminal-r3" x="1781.2" y="922.8" textLength="12.2" clip-path="url(#terminal-line-37)">
</text><text class="terminal-r3" x="1781.2" y="947.2" textLength="12.2" clip-path="url(#terminal-line-38)">
</text><text class="terminal-r3" x="1781.2" y="971.6" textLength="12.2" clip-path="url(#terminal-line-39)">
</text><text class="terminal-r3" x="1781.2" y="996" textLength="12.2" clip-path="url(#terminal-line-40)">
</text><text class="terminal-r3" x="1781.2" y="1020.4" textLength="12.2" clip-path="url(#terminal-line-41)">
</text><text class="terminal-r3" x="1781.2" y="1044.8" textLength="12.2" clip-path="url(#terminal-line-42)">
</text><text class="terminal-r3" x="1781.2" y="1069.2" textLength="12.2" clip-path="url(#terminal-line-43)">
</text><text class="terminal-r7" x="0" y="1093.6" textLength="1781.2" clip-path="url(#terminal-line-44)">──────────────────────────────────────────────────────────────────────────────────────────────────────────────────────────────────────────────────</text><text class="terminal-r3" x="1781.2" y="1093.6" textLength="12.2" clip-path="url(#terminal-line-44)">
</text><text class="terminal-r3" x="1781.2" y="1118" textLength="12.2" clip-path="url(#terminal-line-45)">
</text><text class="terminal-r11" x="0" y="1142.4" textLength="12.2" clip-path="url(#terminal-line-46)">q</text><text class="terminal-r2" x="12.2" y="1142.4" textLength="61" clip-path="url(#terminal-line-46)">&#160;Back</text><text class="terminal-r11" x="85.4" y="1142.4" textLength="12.2" clip-path="url(#terminal-line-46)">?</text><text class="terminal-r2" x="97.6" y="1142.4" textLength="61" clip-path="url(#terminal-line-46)">&#160;Help</text>
    </g>
    </g>
</svg>
