<svg class="rich-terminal" viewBox="0 0 1800 1196.8" xmlns="http://www.w3.org/2000/svg">
    <!-- Generated with Rich https://www.textualize.io -->
    <style>

    @font-face {
        font-family: "Fira Code";
        src: local("FiraCode-Regular"),
                url("https://cdnjs.cloudflare.com/ajax/libs/firacode/6.2.0/woff2/FiraCode-Regular.woff2") format("woff2"),
                url("https://cdnjs.cloudflare.com/ajax/libs/firacode/6.2.0/woff/FiraCode-Regular.woff") format("woff");
        font-style: normal;
        font-weight: 400;
    }
    @font-face {
        font-family: "Fira Code";
        src: local("FiraCode-Bold"),
                url("https://cdnjs.cloudflare.com/ajax/libs/firacode/6.2.0/woff2/FiraCode-Bold.woff2") format("woff2"),
                url("https://cdnjs.cloudflare.com/ajax/libs/firacode/6.2.0/woff/FiraCode-Bold.woff") format("woff");
        font-style: bold;
        font-weight: 700;
    }

    .terminal-matrix {
        font-family: Fira Code, monospace;
        font-size: 20px;
        line-height: 24.4px;
        font-variant-east-asian: full-width;
    }

    .terminal-title {
        font-size: 18px;
        font-weight: bold;
        font-family: arial;
    }

    .terminal-r1 { fill: #fffcf0 }
.terminal-r2 { fill: #b5b3ab }
.terminal-r3 { fill: #c5c8c6 }
.terminal-r4 { fill: #a9a69f }
.terminal-r5 { fill: #c8ad57;font-weight: bold }
.terminal-r6 { fill: #e2eaf3;font-weight: bold }
.terminal-r7 { fill: #282726 }
.terminal-r8 { fill: #003b7e }
.terminal-r9 { fill: #9f9d96;font-weight: bold }
.terminal-r10 { fill: #008000 }
.terminal-r11 { fill: #0000ff }
.terminal-r12 { fill: #adaba3 }
.terminal-r13 { fill: #ffff00 }
.terminal-r14 { fill: #2b2a29 }
.terminal-r15 { fill: #fffcf0;font-weight: bold }
.terminal-r16 { fill: #0a0806 }
.terminal-r17 { fill: #9f9d96 }
.terminal-r18 { fill: #6e6c68 }
.terminal-r19 { fill: #9b76c8;font-weight: bold }
    </style>

    <defs>
    <clipPath id="terminal-clip-terminal">
      <rect x="0" y="0" width="1780.1999999999998" height="1145.8" />
    </clipPath>
    <clipPath id="terminal-line-0">
    <rect x="0" y="1.5" width="1781.2" height="24.65"/>
            </clipPath>
<clipPath id="terminal-line-1">
    <rect x="0" y="25.9" width="1781.2" height="24.65"/>
            </clipPath>
<clipPath id="terminal-line-2">
    <rect x="0" y="50.3" width="1781.2" height="24.65"/>
            </clipPath>
<clipPath id="terminal-line-3">
    <rect x="0" y="74.7" width="1781.2" height="24.65"/>
            </clipPath>
<clipPath id="terminal-line-4">
    <rect x="0" y="99.1" width="1781.2" height="24.65"/>
            </clipPath>
<clipPath id="terminal-line-5">
    <rect x="0" y="123.5" width="1781.2" height="24.65"/>
            </clipPath>
<clipPath id="terminal-line-6">
    <rect x="0" y="147.9" width="1781.2" height="24.65"/>
            </clipPath>
<clipPath id="terminal-line-7">
    <rect x="0" y="172.3" width="1781.2" height="24.65"/>
            </clipPath>
<clipPath id="terminal-line-8">
    <rect x="0" y="196.7" width="1781.2" height="24.65"/>
            </clipPath>
<clipPath id="terminal-line-9">
    <rect x="0" y="221.1" width="1781.2" height="24.65"/>
            </clipPath>
<clipPath id="terminal-line-10">
    <rect x="0" y="245.5" width="1781.2" height="24.65"/>
            </clipPath>
<clipPath id="terminal-line-11">
    <rect x="0" y="269.9" width="1781.2" height="24.65"/>
            </clipPath>
<clipPath id="terminal-line-12">
    <rect x="0" y="294.3" width="1781.2" height="24.65"/>
            </clipPath>
<clipPath id="terminal-line-13">
    <rect x="0" y="318.7" width="1781.2" height="24.65"/>
            </clipPath>
<clipPath id="terminal-line-14">
    <rect x="0" y="343.1" width="1781.2" height="24.65"/>
            </clipPath>
<clipPath id="terminal-line-15">
    <rect x="0" y="367.5" width="1781.2" height="24.65"/>
            </clipPath>
<clipPath id="terminal-line-16">
    <rect x="0" y="391.9" width="1781.2" height="24.65"/>
            </clipPath>
<clipPath id="terminal-line-17">
    <rect x="0" y="416.3" width="1781.2" height="24.65"/>
            </clipPath>
<clipPath id="terminal-line-18">
    <rect x="0" y="440.7" width="1781.2" height="24.65"/>
            </clipPath>
<clipPath id="terminal-line-19">
    <rect x="0" y="465.1" width="1781.2" height="24.65"/>
            </clipPath>
<clipPath id="terminal-line-20">
    <rect x="0" y="489.5" width="1781.2" height="24.65"/>
            </clipPath>
<clipPath id="terminal-line-21">
    <rect x="0" y="513.9" width="1781.2" height="24.65"/>
            </clipPath>
<clipPath id="terminal-line-22">
    <rect x="0" y="538.3" width="1781.2" height="24.65"/>
            </clipPath>
<clipPath id="terminal-line-23">
    <rect x="0" y="562.7" width="1781.2" height="24.65"/>
            </clipPath>
<clipPath id="terminal-line-24">
    <rect x="0" y="587.1" width="1781.2" height="24.65"/>
            </clipPath>
<clipPath id="terminal-line-25">
    <rect x="0" y="611.5" width="1781.2" height="24.65"/>
            </clipPath>
<clipPath id="terminal-line-26">
    <rect x="0" y="635.9" width="1781.2" height="24.65"/>
            </clipPath>
<clipPath id="terminal-line-27">
    <rect x="0" y="660.3" width="1781.2" height="24.65"/>
            </clipPath>
<clipPath id="terminal-line-28">
    <rect x="0" y="684.7" width="1781.2" height="24.65"/>
            </clipPath>
<clipPath id="terminal-line-29">
    <rect x="0" y="709.1" width="1781.2" height="24.65"/>
            </clipPath>
<clipPath id="terminal-line-30">
    <rect x="0" y="733.5" width="1781.2" height="24.65"/>
            </clipPath>
<clipPath id="terminal-line-31">
    <rect x="0" y="757.9" width="1781.2" height="24.65"/>
            </clipPath>
<clipPath id="terminal-line-32">
    <rect x="0" y="782.3" width="1781.2" height="24.65"/>
            </clipPath>
<clipPath id="terminal-line-33">
    <rect x="0" y="806.7" width="1781.2" height="24.65"/>
            </clipPath>
<clipPath id="terminal-line-34">
    <rect x="0" y="831.1" width="1781.2" height="24.65"/>
            </clipPath>
<clipPath id="terminal-line-35">
    <rect x="0" y="855.5" width="1781.2" height="24.65"/>
            </clipPath>
<clipPath id="terminal-line-36">
    <rect x="0" y="879.9" width="1781.2" height="24.65"/>
            </clipPath>
<clipPath id="terminal-line-37">
    <rect x="0" y="904.3" width="1781.2" height="24.65"/>
            </clipPath>
<clipPath id="terminal-line-38">
    <rect x="0" y="928.7" width="1781.2" height="24.65"/>
            </clipPath>
<clipPath id="terminal-line-39">
    <rect x="0" y="953.1" width="1781.2" height="24.65"/>
            </clipPath>
<clipPath id="terminal-line-40">
    <rect x="0" y="977.5" width="1781.2" height="24.65"/>
            </clipPath>
<clipPath id="terminal-line-41">
    <rect x="0" y="1001.9" width="1781.2" height="24.65"/>
            </clipPath>
<clipPath id="terminal-line-42">
    <rect x="0" y="1026.3" width="1781.2" height="24.65"/>
            </clipPath>
<clipPath id="terminal-line-43">
    <rect x="0" y="1050.7" width="1781.2" height="24.65"/>
            </clipPath>
<clipPath id="terminal-line-44">
    <rect x="0" y="1075.1" width="1781.2" height="24.65"/>
            </clipPath>
<clipPath id="terminal-line-45">
    <rect x="0" y="1099.5" width="1781.2" height="24.65"/>
            </clipPath>
    </defs>

    <rect fill="#292929" stroke="rgba(255,255,255,0.35)" stroke-width="1" x="1" y="1" width="1798" height="1194.8" rx="8"/><text class="terminal-title" fill="#c5c8c6" text-anchor="middle" x="899" y="27">HeartSuite&#160;Core&#160;Secure</text>
            <g transform="translate(26,22)">
            <circle cx="0" cy="0" r="7" fill="#ff5f57"/>
            <circle cx="22" cy="0" r="7" fill="#febc2e"/>
            <circle cx="44" cy="0" r="7" fill="#28c840"/>
            </g>
        
    <g transform="translate(9, 41)" clip-path="url(#terminal-clip-terminal)">
    <rect fill="#282726" x="0" y="1.5" width="622.2" height="24.65" shape-rendering="crispEdges"/><rect fill="#282726" x="622.2" y="1.5" width="268.4" height="24.65" shape-rendering="crispEdges"/><rect fill="#282726" x="890.6" y="1.5" width="36.6" height="24.65" shape-rendering="crispEdges"/><rect fill="#282726" x="927.2" y="1.5" width="109.8" height="24.65" shape-rendering="crispEdges"/><rect fill="#282726" x="1037" y="1.5" width="622.2" height="24.65" shape-rendering="crispEdges"/><rect fill="#282726" x="1659.2" y="1.5" width="12.2" height="24.65" shape-rendering="crispEdges"/><rect fill="#282726" x="1671.4" y="1.5" width="0" height="24.65" shape-rendering="crispEdges"/><rect fill="#282726" x="1671.4" y="1.5" width="109.8" height="24.65" shape-rendering="crispEdges"/><rect fill="#282726" x="0" y="25.9" width="12.2" height="24.65" shape-rendering="crispEdges"/><rect fill="#282726" x="12.2" y="25.9" width="1207.8" height="24.65" shape-rendering="crispEdges"/><rect fill="#282726" x="1220" y="25.9" width="561.2" height="24.65" shape-rendering="crispEdges"/><rect fill="#ac8301" x="0" y="50.3" width="1781.2" height="24.65" shape-rendering="crispEdges"/><rect fill="#ac8301" x="0" y="74.7" width="683.2" height="24.65" shape-rendering="crispEdges"/><rect fill="#ac8301" x="683.2" y="74.7" width="414.8" height="24.65" shape-rendering="crispEdges"/><rect fill="#ac8301" x="1098" y="74.7" width="683.2" height="24.65" shape-rendering="crispEdges"/><rect fill="#ac8301" x="0" y="99.1" width="1781.2" height="24.65" shape-rendering="crispEdges"/><rect fill="#205ea6" x="0" y="123.5" width="1781.2" height="24.65" shape-rendering="crispEdges"/><rect fill="#205ea6" x="0" y="147.9" width="549" height="24.65" shape-rendering="crispEdges"/><rect fill="#205ea6" x="549" y="147.9" width="353.8" height="24.65" shape-rendering="crispEdges"/><rect fill="#205ea6" x="902.8" y="147.9" width="329.4" height="24.65" shape-rendering="crispEdges"/><rect fill="#205ea6" x="1232.2" y="147.9" width="549" height="24.65" shape-rendering="crispEdges"/><rect fill="#205ea6" x="0" y="172.3" width="1781.2" height="24.65" shape-rendering="crispEdges"/><rect fill="#100f0f" x="0" y="196.7" width="1781.2" height="24.65" shape-rendering="crispEdges"/><rect fill="#100f0f" x="0" y="221.1" width="1781.2" height="24.65" shape-rendering="crispEdges"/><rect fill="#100f0f" x="0" y="245.5" width="1781.2" height="24.65" shape-rendering="crispEdges"/><rect fill="#100f0f" x="0" y="269.9" width="24.4" height="24.65" shape-rendering="crispEdges"/><rect fill="#100f0f" x="24.4" y="269.9" width="195.2" height="24.65" shape-rendering="crispEdges"/><rect fill="#100f0f" x="219.6" y="269.9" width="1122.4" height="24.65" shape-rendering="crispEdges"/><rect fill="#100f0f" x="1342" y="269.9" width="24.4" height="24.65" shape-rendering="crispEdges"/><rect fill="#100f0f" x="1366.4" y="269.9" width="97.6" height="24.65" shape-rendering="crispEdges"/><rect fill="#100f0f" x="1464" y="269.9" width="317.2" height="24.65" shape-rendering="crispEdges"/><rect fill="#100f0f" x="0" y="294.3" width="12.2" height="24.65" shape-rendering="crispEdges"/><rect fill="#100f0f" x="12.2" y="294.3" width="12.2" height="24.65" shape-rendering="crispEdges"/><rect fill="#100f0f" x="24.4" y="294.3" width="597.8" height="24.65" shape-rendering="crispEdges"/><rect fill="#100f0f" x="622.2" y="294.3" width="707.6" height="24.65" shape-rendering="crispEdges"/><rect fill="#100f0f" x="1329.8" y="294.3" width="12.2" height="24.65" shape-rendering="crispEdges"/><rect fill="#100f0f" x="1342" y="294.3" width="12.2" height="24.65" shape-rendering="crispEdges"/><rect fill="#100f0f" x="1354.2" y="294.3" width="12.2" height="24.65" shape-rendering="crispEdges"/><rect fill="#100f0f" x="1366.4" y="294.3" width="366" height="24.65" shape-rendering="crispEdges"/><rect fill="#100f0f" x="1732.4" y="294.3" width="36.6" height="24.65" shape-rendering="crispEdges"/><rect fill="#100f0f" x="1769" y="294.3" width="12.2" height="24.65" shape-rendering="crispEdges"/><rect fill="#100f0f" x="0" y="318.7" width="12.2" height="24.65" shape-rendering="crispEdges"/><rect fill="#100f0f" x="12.2" y="318.7" width="12.2" height="24.65" shape-rendering="crispEdges"/><rect fill="#100f0f" x="24.4" y="318.7" width="597.8" height="24.65" shape-rendering="crispEdges"/><rect fill="#100f0f" x="622.2" y="318.7" width="707.6" height="24.65" shape-rendering="crispEdges"/><rect fill="#100f0f" x="1329.8" y="318.7" width="12.2" height="24.65" shape-rendering="crispEdges"/><rect fill="#100f0f" x="1342" y="318.7" width="12.2" height="24.65" shape-rendering="crispEdges"/><rect fill="#100f0f" x="1354.2" y="318.7" width="12.2" height="24.65" shape-rendering="crispEdges"/><rect fill="#100f0f" x="1366.4" y="318.7" width="366" height="24.65" shape-rendering="crispEdges"/><rect fill="#100f0f" x="1732.4" y="318.7" width="36.6" height="24.65" shape-rendering="crispEdges"/><rect fill="#100f0f" x="1769" y="318.7" width="12.2" height="24.65" shape-rendering="crispEdges"/><rect fill="#100f0f" x="0" y="343.1" width="12.2" height="24.65" shape-rendering="crispEdges"/><rect fill="#100f0f" x="12.2" y="343.1" width="12.2" height="24.65" shape-rendering="crispEdges"/><rect fill="#100f0f" x="24.4" y="343.1" width="597.8" height="24.65" shape-rendering="crispEdges"/><rect fill="#100f0f" x="622.2" y="343.1" width="707.6" height="24.65" shape-rendering="crispEdges"/><rect fill="#100f0f" x="1329.8" y="343.1" width="12.2" height="24.65" shape-rendering="crispEdges"/><rect fill="#100f0f" x="1342" y="343.1" width="12.2" height="24.65" shape-rendering="crispEdges"/><rect fill="#100f0f" x="1354.2" y="343.1" width="12.2" height="24.65" shape-rendering="crispEdges"/><rect fill="#100f0f" x="1366.4" y="343.1" width="366" height="24.65" shape-rendering="crispEdges"/><rect fill="#100f0f" x="1732.4" y="343.1" width="36.6" height="24.65" shape-rendering="crispEdges"/><rect fill="#100f0f" x="1769" y="343.1" width="12.2" height="24.65" shape-rendering="crispEdges"/><rect fill="#100f0f" x="0" y="367.5" width="12.2" height="24.65" shape-rendering="crispEdges"/><rect fill="#100f0f" x="12.2" y="367.5" width="12.2" height="24.65" shape-rendering="crispEdges"/><rect fill="#100f0f" x="24.4" y="367.5" width="597.8" height="24.65" shape-rendering="crispEdges"/><rect fill="#100f0f" x="622.2" y="367.5" width="707.6" height="24.65" shape-rendering="crispEdges"/><rect fill="#100f0f" x="1329.8" y="367.5" width="12.2" height="24.65" shape-rendering="crispEdges"/><rect fill="#100f0f" x="1342" y="367.5" width="12.2" height="24.65" shape-rendering="crispEdges"/><rect fill="#100f0f" x="1354.2" y="367.5" width="12.2" height="24.65" shape-rendering="crispEdges"/><rect fill="#100f0f" x="1366.4" y="367.5" width="366" height="24.65" shape-rendering="crispEdges"/><rect fill="#100f0f" x="1732.4" y="367.5" width="36.6" height="24.65" shape-rendering="crispEdges"/><rect fill="#100f0f" x="1769" y="367.5" width="12.2" height="24.65" shape-rendering="crispEdges"/><rect fill="#100f0f" x="0" y="391.9" width="12.2" height="24.65" shape-rendering="crispEdges"/><rect fill="#100f0f" x="12.2" y="391.9" width="12.2" height="24.65" shape-rendering="crispEdges"/><rect fill="#100f0f" x="24.4" y="391.9" width="597.8" height="24.65" shape-rendering="crispEdges"/><rect fill="#100f0f" x="622.2" y="391.9" width="707.6" height="24.65" shape-rendering="crispEdges"/><rect fill="#100f0f" x="1329.8" y="391.9" width="12.2" height="24.65" shape-rendering="crispEdges"/><rect fill="#100f0f" x="1342" y="391.9" width="12.2" height="24.65" shape-rendering="crispEdges"/><rect fill="#100f0f" x="1354.2" y="391.9" width="12.2" height="24.65" shape-rendering="crispEdges"/><rect fill="#100f0f" x="1366.4" y="391.9" width="390.4" height="24.65" shape-rendering="crispEdges"/><rect fill="#100f0f" x="1756.8" y="391.9" width="12.2" height="24.65" shape-rendering="crispEdges"/><rect fill="#100f0f" x="1769" y="391.9" width="12.2" height="24.65" shape-rendering="crispEdges"/><rect fill="#100f0f" x="0" y="416.3" width="12.2" height="24.65" shape-rendering="crispEdges"/><rect fill="#100f0f" x="12.2" y="416.3" width="12.2" height="24.65" shape-rendering="crispEdges"/><rect fill="#100f0f" x="24.4" y="416.3" width="597.8" height="24.65" shape-rendering="crispEdges"/><rect fill="#100f0f" x="622.2" y="416.3" width="707.6" height="24.65" shape-rendering="crispEdges"/><rect fill="#100f0f" x="1329.8" y="416.3" width="12.2" height="24.65" shape-rendering="crispEdges"/><rect fill="#100f0f" x="1342" y="416.3" width="12.2" height="24.65" shape-rendering="crispEdges"/><rect fill="#100f0f" x="1354.2" y="416.3" width="12.2" height="24.65" shape-rendering="crispEdges"/><rect fill="#100f0f" x="1366.4" y="416.3" width="390.4" height="24.65" shape-rendering="crispEdges"/><rect fill="#100f0f" x="1756.8" y="416.3" width="12.2" height="24.65" shape-rendering="crispEdges"/><rect fill="#100f0f" x="1769" y="416.3" width="12.2" height="24.65" shape-rendering="crispEdges"/><rect fill="#100f0f" x="0" y="440.7" width="12.2" height="24.65" shape-rendering="crispEdges"/><rect fill="#100f0f" x="12.2" y="440.7" width="12.2" height="24.65" shape-rendering="crispEdges"/><rect fill="#100f0f" x="24.4" y="440.7" width="597.8" height="24.65" shape-rendering="crispEdges"/><rect fill="#100f0f" x="622.2" y="440.7" width="707.6" height="24.65" shape-rendering="crispEdges"/><rect fill="#100f0f" x="1329.8" y="440.7" width="12.2" height="24.65" shape-rendering="crispEdges"/><rect fill="#100f0f" x="1342" y="440.7" width="12.2" height="24.65" shape-rendering="crispEdges"/><rect fill="#100f0f" x="1354.2" y="440.7" width="12.2" height="24.65" shape-rendering="crispEdges"/><rect fill="#100f0f" x="1366.4" y="440.7" width="390.4" height="24.65" shape-rendering="crispEdges"/><rect fill="#100f0f" x="1756.8" y="440.7" width="12.2" height="24.65" shape-rendering="crispEdges"/><rect fill="#100f0f" x="1769" y="440.7" width="12.2" height="24.65" shape-rendering="crispEdges"/><rect fill="#100f0f" x="0" y="465.1" width="1342" height="24.65" shape-rendering="crispEdges"/><rect fill="#100f0f" x="1342" y="465.1" width="439.2" height="24.65" shape-rendering="crispEdges"/><rect fill="#100f0f" x="0" y="489.5" width="1781.2" height="24.65" shape-rendering="crispEdges"/><rect fill="#1c1b1a" x="0" y="513.9" width="341.6" height="24.65" shape-rendering="crispEdges"/><rect fill="#100f0f" x="341.6" y="513.9" width="12.2" height="24.65" shape-rendering="crispEdges"/><rect fill="#1c1b1a" x="353.8" y="513.9" width="341.6" height="24.65" shape-rendering="crispEdges"/><rect fill="#100f0f" x="695.4" y="513.9" width="12.2" height="24.65" shape-rendering="crispEdges"/><rect fill="#1c1b1a" x="707.6" y="513.9" width="353.8" height="24.65" shape-rendering="crispEdges"/><rect fill="#100f0f" x="1061.4" y="513.9" width="719.8" height="24.65" shape-rendering="crispEdges"/><rect fill="#1c1b1a" x="0" y="538.3" width="122" height="24.65" shape-rendering="crispEdges"/><rect fill="#1c1b1a" x="122" y="538.3" width="97.6" height="24.65" shape-rendering="crispEdges"/><rect fill="#1c1b1a" x="219.6" y="538.3" width="122" height="24.65" shape-rendering="crispEdges"/><rect fill="#100f0f" x="341.6" y="538.3" width="12.2" height="24.65" shape-rendering="crispEdges"/><rect fill="#1c1b1a" x="353.8" y="538.3" width="109.8" height="24.65" shape-rendering="crispEdges"/><rect fill="#1c1b1a" x="463.6" y="538.3" width="109.8" height="24.65" shape-rendering="crispEdges"/><rect fill="#1c1b1a" x="573.4" y="538.3" width="122" height="24.65" shape-rendering="crispEdges"/><rect fill="#100f0f" x="695.4" y="538.3" width="12.2" height="24.65" shape-rendering="crispEdges"/><rect fill="#1c1b1a" x="707.6" y="538.3" width="85.4" height="24.65" shape-rendering="crispEdges"/><rect fill="#1c1b1a" x="793" y="538.3" width="170.8" height="24.65" shape-rendering="crispEdges"/><rect fill="#1c1b1a" x="963.8" y="538.3" width="97.6" height="24.65" shape-rendering="crispEdges"/><rect fill="#100f0f" x="1061.4" y="538.3" width="719.8" height="24.65" shape-rendering="crispEdges"/><rect fill="#1c1b1a" x="0" y="562.7" width="341.6" height="24.65" shape-rendering="crispEdges"/><rect fill="#100f0f" x="341.6" y="562.7" width="12.2" height="24.65" shape-rendering="crispEdges"/><rect fill="#1c1b1a" x="353.8" y="562.7" width="341.6" height="24.65" shape-rendering="crispEdges"/><rect fill="#100f0f" x="695.4" y="562.7" width="12.2" height="24.65" shape-rendering="crispEdges"/><rect fill="#1c1b1a" x="707.6" y="562.7" width="353.8" height="24.65" shape-rendering="crispEdges"/><rect fill="#100f0f" x="1061.4" y="562.7" width="719.8" height="24.65" shape-rendering="crispEdges"/><rect fill="#100f0f" x="0" y="587.1" width="1781.2" height="24.65" shape-rendering="crispEdges"/><rect fill="#100f0f" x="0" y="611.5" width="12.2" height="24.65" shape-rendering="crispEdges"/><rect fill="#100f0f" x="12.2" y="611.5" width="0" height="24.65" shape-rendering="crispEdges"/><rect fill="#100f0f" x="12.2" y="611.5" width="1769" height="24.65" shape-rendering="crispEdges"/><rect fill="#100f0f" x="0" y="635.9" width="24.4" height="24.65" shape-rendering="crispEdges"/><rect fill="#100f0f" x="24.4" y="635.9" width="341.6" height="24.65" shape-rendering="crispEdges"/><rect fill="#100f0f" x="366" y="635.9" width="1415.2" height="24.65" shape-rendering="crispEdges"/><rect fill="#100f0f" x="0" y="660.3" width="12.2" height="24.65" shape-rendering="crispEdges"/><rect fill="#100f0f" x="12.2" y="660.3" width="12.2" height="24.65" shape-rendering="crispEdges"/><rect fill="#100f0f" x="24.4" y="660.3" width="24.4" height="24.65" shape-rendering="crispEdges"/><rect fill="#100f0f" x="48.8" y="660.3" width="780.8" height="24.65" shape-rendering="crispEdges"/><rect fill="#100f0f" x="829.6" y="660.3" width="939.4" height="24.65" shape-rendering="crispEdges"/><rect fill="#100f0f" x="1769" y="660.3" width="12.2" height="24.65" shape-rendering="crispEdges"/><rect fill="#100f0f" x="0" y="684.7" width="1781.2" height="24.65" shape-rendering="crispEdges"/><rect fill="#100f0f" x="0" y="709.1" width="1781.2" height="24.65" shape-rendering="crispEdges"/><rect fill="#100f0f" x="0" y="733.5" width="1781.2" height="24.65" shape-rendering="crispEdges"/><rect fill="#100f0f" x="0" y="757.9" width="1781.2" height="24.65" shape-rendering="crispEdges"/><rect fill="#100f0f" x="0" y="782.3" width="1781.2" height="24.65" shape-rendering="crispEdges"/><rect fill="#100f0f" x="0" y="806.7" width="1781.2" height="24.65" shape-rendering="crispEdges"/><rect fill="#100f0f" x="0" y="831.1" width="1781.2" height="24.65" shape-rendering="crispEdges"/><rect fill="#100f0f" x="0" y="855.5" width="1781.2" height="24.65" shape-rendering="crispEdges"/><rect fill="#100f0f" x="0" y="879.9" width="1781.2" height="24.65" shape-rendering="crispEdges"/><rect fill="#100f0f" x="0" y="904.3" width="1781.2" height="24.65" shape-rendering="crispEdges"/><rect fill="#100f0f" x="0" y="928.7" width="1781.2" height="24.65" shape-rendering="crispEdges"/><rect fill="#100f0f" x="0" y="953.1" width="1781.2" height="24.65" shape-rendering="crispEdges"/><rect fill="#100f0f" x="0" y="977.5" width="1781.2" height="24.65" shape-rendering="crispEdges"/><rect fill="#100f0f" x="0" y="1001.9" width="1781.2" height="24.65" shape-rendering="crispEdges"/><rect fill="#100f0f" x="0" y="1026.3" width="1781.2" height="24.65" shape-rendering="crispEdges"/><rect fill="#100f0f" x="0" y="1050.7" width="1781.2" height="24.65" shape-rendering="crispEdges"/><rect fill="#100f0f" x="0" y="1075.1" width="1781.2" height="24.65" shape-rendering="crispEdges"/><rect fill="#100f0f" x="0" y="1099.5" width="1781.2" height="24.65" shape-rendering="crispEdges"/><rect fill="#282726" x="0" y="1123.9" width="12.2" height="24.65" shape-rendering="crispEdges"/><rect fill="#282726" x="12.2" y="1123.9" width="61" height="24.65" shape-rendering="crispEdges"/><rect fill="#282726" x="73.2" y="1123.9" width="12.2" height="24.65" shape-rendering="crispEdges"/><rect fill="#282726" x="85.4" y="1123.9" width="12.2" height="24.65" shape-rendering="crispEdges"/><rect fill="#282726" x="97.6" y="1123.9" width="146.4" height="24.65" shape-rendering="crispEdges"/><rect fill="#282726" x="244" y="1123.9" width="12.2" height="24.65" shape-rendering="crispEdges"/><rect fill="#282726" x="256.2" y="1123.9" width="12.2" height="24.65" shape-rendering="crispEdges"/><rect fill="#282726" x="268.4" y="1123.9" width="97.6" height="24.65" shape-rendering="crispEdges"/><rect fill="#282726" x="366" y="1123.9" width="12.2" height="24.65" shape-rendering="crispEdges"/><rect fill="#282726" x="378.2" y="1123.9" width="12.2" height="24.65" shape-rendering="crispEdges"/><rect fill="#282726" x="390.4" y="1123.9" width="146.4" height="24.65" shape-rendering="crispEdges"/><rect fill="#282726" x="536.8" y="1123.9" width="12.2" height="24.65" shape-rendering="crispEdges"/><rect fill="#282726" x="549" y="1123.9" width="12.2" height="24.65" shape-rendering="crispEdges"/><rect fill="#282726" x="561.2" y="1123.9" width="85.4" height="24.65" shape-rendering="crispEdges"/><rect fill="#282726" x="646.6" y="1123.9" width="12.2" height="24.65" shape-rendering="crispEdges"/><rect fill="#282726" x="658.8" y="1123.9" width="12.2" height="24.65" shape-rendering="crispEdges"/><rect fill="#282726" x="671" y="1123.9" width="97.6" height="24.65" shape-rendering="crispEdges"/><rect fill="#282726" x="768.6" y="1123.9" width="12.2" height="24.65" shape-rendering="crispEdges"/><rect fill="#282726" x="780.8" y="1123.9" width="12.2" height="24.65" shape-rendering="crispEdges"/><rect fill="#282726" x="793" y="1123.9" width="61" height="24.65" shape-rendering="crispEdges"/><rect fill="#282726" x="854" y="1123.9" width="927.2" height="24.65" shape-rendering="crispEdges"/>
    <g class="terminal-matrix">
    <text class="terminal-r1" x="622.2" y="20" textLength="268.4" clip-path="url(#terminal-line-0)">HeartSuite&#160;Core&#160;Secure</text><text class="terminal-r2" x="890.6" y="20" textLength="36.6" clip-path="url(#terminal-line-0)">&#160;—&#160;</text><text class="terminal-r2" x="927.2" y="20" textLength="109.8" clip-path="url(#terminal-line-0)">Dashboard</text><text class="terminal-r3" x="1781.2" y="20" textLength="12.2" clip-path="url(#terminal-line-0)">
</text><text class="terminal-r4" x="12.2" y="44.4" textLength="1207.8" clip-path="url(#terminal-line-1)">Kernel:&#160;HS&#160;&#160;&#160;&#160;Mode:&#160;Secure&#160;—&#160;active&#160;for&#160;103d&#160;10h&#160;&#160;&#160;&#160;Lockdown:&#160;Not&#160;applied&#160;&#160;&#160;&#160;Backup:&#160;not&#160;configured</text><text class="terminal-r3" x="1781.2" y="44.4" textLength="12.2" clip-path="url(#terminal-line-1)">
</text><text class="terminal-r3" x="1781.2" y="68.8" textLength="12.2" clip-path="url(#terminal-line-2)">
</text><text class="terminal-r5" x="683.2" y="93.2" textLength="414.8" clip-path="url(#terminal-line-3)">SECURE&#160;MODE&#160;—&#160;Lockdown&#160;not&#160;applied</text><text class="terminal-r3" x="1781.2" y="93.2" textLength="12.2" clip-path="url(#terminal-line-3)">
</text><text class="terminal-r3" x="1781.2" y="117.6" textLength="12.2" clip-path="url(#terminal-line-4)">
</text><text class="terminal-r3" x="1781.2" y="142" textLength="12.2" clip-path="url(#terminal-line-5)">
</text><text class="terminal-r6" x="549" y="166.4" textLength="353.8" clip-path="url(#terminal-line-6)">Suggested:&#160;4&#160;events&#160;denied&#160;—&#160;</text><text class="terminal-r6" x="902.8" y="166.4" textLength="329.4" clip-path="url(#terminal-line-6)">&#160;Maintenance&#160;to&#160;investigate</text><text class="terminal-r3" x="1781.2" y="166.4" textLength="12.2" clip-path="url(#terminal-line-6)">
</text><text class="terminal-r3" x="1781.2" y="190.8" textLength="12.2" clip-path="url(#terminal-line-7)">
</text><text class="terminal-r3" x="1781.2" y="215.2" textLength="12.2" clip-path="url(#terminal-line-8)">
</text><text class="terminal-r7" x="0" y="239.6" textLength="1781.2" clip-path="url(#terminal-line-9)">──────────────────────────────────────────────────────────────────────────────────────────────────────────────────────────────────────────────────</text><text class="terminal-r3" x="1781.2" y="239.6" textLength="12.2" clip-path="url(#terminal-line-9)">
</text><text class="terminal-r3" x="1781.2" y="264" textLength="12.2" clip-path="url(#terminal-line-10)">
</text><text class="terminal-r8" x="0" y="288.4" textLength="24.4" clip-path="url(#terminal-line-11)">╭─</text><text class="terminal-r9" x="24.4" y="288.4" textLength="195.2" clip-path="url(#terminal-line-11)">&#160;Phase&#160;Progress&#160;</text><text class="terminal-r8" x="219.6" y="288.4" textLength="1122.4" clip-path="url(#terminal-line-11)">───────────────────────────────────────────────────────────────────────────────────────────╮</text><text class="terminal-r7" x="1342" y="288.4" textLength="24.4" clip-path="url(#terminal-line-11)">╭─</text><text class="terminal-r9" x="1366.4" y="288.4" textLength="97.6" clip-path="url(#terminal-line-11)">&#160;Denied&#160;</text><text class="terminal-r7" x="1464" y="288.4" textLength="317.2" clip-path="url(#terminal-line-11)">─────────────────────────╮</text><text class="terminal-r3" x="1781.2" y="288.4" textLength="12.2" clip-path="url(#terminal-line-11)">
</text><text class="terminal-r8" x="0" y="312.8" textLength="12.2" clip-path="url(#terminal-line-12)">│</text><text class="terminal-r10" x="24.4" y="312.8" textLength="597.8" clip-path="url(#terminal-line-12)">✓&#160;&#160;Phase&#160;1:&#160;System&#160;Verification&#160;&#160;&#160;&#160;&#160;&#160;&#160;&#160;&#160;&#160;Complete</text><text class="terminal-r8" x="1329.8" y="312.8" textLength="12.2" clip-path="url(#terminal-line-12)">│</text><text class="terminal-r7" x="1342" y="312.8" textLength="12.2" clip-path="url(#terminal-line-12)">│</text><text class="terminal-r11" x="1366.4" y="312.8" textLength="366" clip-path="url(#terminal-line-12)">&#160;&#160;Programs&#160;&#160;&#160;&#160;&#160;&#160;&#160;&#160;&#160;&#160;—&#160;2&#160;events</text><text class="terminal-r7" x="1769" y="312.8" textLength="12.2" clip-path="url(#terminal-line-12)">│</text><text class="terminal-r3" x="1781.2" y="312.8" textLength="12.2" clip-path="url(#terminal-line-12)">
</text><text class="terminal-r8" x="0" y="337.2" textLength="12.2" clip-path="url(#terminal-line-13)">│</text><text class="terminal-r10" x="24.4" y="337.2" textLength="597.8" clip-path="url(#terminal-line-13)">✓&#160;&#160;Phase&#160;2:&#160;Program&#160;Allowlisting&#160;&#160;&#160;&#160;&#160;&#160;&#160;&#160;&#160;Complete</text><text class="terminal-r8" x="1329.8" y="337.2" textLength="12.2" clip-path="url(#terminal-line-13)">│</text><text class="terminal-r7" x="1342" y="337.2" textLength="12.2" clip-path="url(#terminal-line-13)">│</text><text class="terminal-r10" x="1366.4" y="337.2" textLength="366" clip-path="url(#terminal-line-13)">&#160;&#160;File&#160;reads&#160;&#160;&#160;&#160;&#160;&#160;&#160;&#160;—&#160;1&#160;events</text><text class="terminal-r7" x="1769" y="337.2" textLength="12.2" clip-path="url(#terminal-line-13)">│</text><text class="terminal-r3" x="1781.2" y="337.2" textLength="12.2" clip-path="url(#terminal-line-13)">
</text><text class="terminal-r8" x="0" y="361.6" textLength="12.2" clip-path="url(#terminal-line-14)">│</text><text class="terminal-r10" x="24.4" y="361.6" textLength="597.8" clip-path="url(#terminal-line-14)">✓&#160;&#160;Phase&#160;3:&#160;Script&#160;Launchers&#160;&#160;&#160;&#160;&#160;&#160;&#160;&#160;&#160;&#160;&#160;&#160;&#160;Complete</text><text class="terminal-r8" x="1329.8" y="361.6" textLength="12.2" clip-path="url(#terminal-line-14)">│</text><text class="terminal-r7" x="1342" y="361.6" textLength="12.2" clip-path="url(#terminal-line-14)">│</text><text class="terminal-r12" x="1366.4" y="361.6" textLength="366" clip-path="url(#terminal-line-14)">&#160;&#160;File&#160;writes&#160;&#160;&#160;&#160;&#160;&#160;&#160;—&#160;0&#160;events</text><text class="terminal-r7" x="1769" y="361.6" textLength="12.2" clip-path="url(#terminal-line-14)">│</text><text class="terminal-r3" x="1781.2" y="361.6" textLength="12.2" clip-path="url(#terminal-line-14)">
</text><text class="terminal-r8" x="0" y="386" textLength="12.2" clip-path="url(#terminal-line-15)">│</text><text class="terminal-r10" x="24.4" y="386" textLength="597.8" clip-path="url(#terminal-line-15)">✓&#160;&#160;Phase&#160;4:&#160;File&#160;Access&#160;Allowlisting&#160;&#160;&#160;&#160;&#160;Complete</text><text class="terminal-r8" x="1329.8" y="386" textLength="12.2" clip-path="url(#terminal-line-15)">│</text><text class="terminal-r7" x="1342" y="386" textLength="12.2" clip-path="url(#terminal-line-15)">│</text><text class="terminal-r13" x="1366.4" y="386" textLength="366" clip-path="url(#terminal-line-15)">&#160;&#160;Internet&#160;Access&#160;&#160;&#160;—&#160;1&#160;events</text><text class="terminal-r7" x="1769" y="386" textLength="12.2" clip-path="url(#terminal-line-15)">│</text><text class="terminal-r3" x="1781.2" y="386" textLength="12.2" clip-path="url(#terminal-line-15)">
</text><text class="terminal-r8" x="0" y="410.4" textLength="12.2" clip-path="url(#terminal-line-16)">│</text><text class="terminal-r10" x="24.4" y="410.4" textLength="597.8" clip-path="url(#terminal-line-16)">✓&#160;&#160;Phase&#160;5:&#160;Internet&#160;Access&#160;Allowlisting&#160;Complete</text><text class="terminal-r8" x="1329.8" y="410.4" textLength="12.2" clip-path="url(#terminal-line-16)">│</text><text class="terminal-r7" x="1342" y="410.4" textLength="12.2" clip-path="url(#terminal-line-16)">│</text><text class="terminal-r7" x="1769" y="410.4" textLength="12.2" clip-path="url(#terminal-line-16)">│</text><text class="terminal-r3" x="1781.2" y="410.4" textLength="12.2" clip-path="url(#terminal-line-16)">
</text><text class="terminal-r8" x="0" y="434.8" textLength="12.2" clip-path="url(#terminal-line-17)">│</text><text class="terminal-r10" x="24.4" y="434.8" textLength="597.8" clip-path="url(#terminal-line-17)">✓&#160;&#160;Phase&#160;6:&#160;Alert&#160;Configuration&#160;&#160;&#160;&#160;&#160;&#160;&#160;&#160;&#160;&#160;Complete</text><text class="terminal-r8" x="1329.8" y="434.8" textLength="12.2" clip-path="url(#terminal-line-17)">│</text><text class="terminal-r7" x="1342" y="434.8" textLength="12.2" clip-path="url(#terminal-line-17)">│</text><text class="terminal-r7" x="1769" y="434.8" textLength="12.2" clip-path="url(#terminal-line-17)">│</text><text class="terminal-r3" x="1781.2" y="434.8" textLength="12.2" clip-path="url(#terminal-line-17)">
</text><text class="terminal-r8" x="0" y="459.2" textLength="12.2" clip-path="url(#terminal-line-18)">│</text><text class="terminal-r10" x="24.4" y="459.2" textLength="597.8" clip-path="url(#terminal-line-18)">✓&#160;&#160;Phase&#160;7:&#160;Secure&#160;Mode&#160;&#160;&#160;&#160;&#160;&#160;&#160;&#160;&#160;&#160;&#160;&#160;&#160;&#160;&#160;&#160;&#160;&#160;Complete</text><text class="terminal-r8" x="1329.8" y="459.2" textLength="12.2" clip-path="url(#terminal-line-18)">│</text><text class="terminal-r7" x="1342" y="459.2" textLength="12.2" clip-path="url(#terminal-line-18)">│</text><text class="terminal-r7" x="1769" y="459.2" textLength="12.2" clip-path="url(#terminal-line-18)">│</text><text class="terminal-r3" x="1781.2" y="459.2" textLength="12.2" clip-path="url(#terminal-line-18)">
</text><text class="terminal-r8" x="0" y="483.6" textLength="1342" clip-path="url(#terminal-line-19)">╰────────────────────────────────────────────────────────────────────────────────────────────────────────────╯</text><text class="terminal-r7" x="1342" y="483.6" textLength="439.2" clip-path="url(#terminal-line-19)">╰──────────────────────────────────╯</text><text class="terminal-r3" x="1781.2" y="483.6" textLength="12.2" clip-path="url(#terminal-line-19)">
</text><text class="terminal-r3" x="1781.2" y="508" textLength="12.2" clip-path="url(#terminal-line-20)">
</text><text class="terminal-r14" x="0" y="532.4" textLength="341.6" clip-path="url(#terminal-line-21)">▔▔▔▔▔▔▔▔▔▔▔▔▔▔▔▔▔▔▔▔▔▔▔▔▔▔▔▔</text><text class="terminal-r14" x="353.8" y="532.4" textLength="341.6" clip-path="url(#terminal-line-21)">▔▔▔▔▔▔▔▔▔▔▔▔▔▔▔▔▔▔▔▔▔▔▔▔▔▔▔▔</text><text class="terminal-r14" x="707.6" y="532.4" textLength="353.8" clip-path="url(#terminal-line-21)">▔▔▔▔▔▔▔▔▔▔▔▔▔▔▔▔▔▔▔▔▔▔▔▔▔▔▔▔▔</text><text class="terminal-r3" x="1781.2" y="532.4" textLength="12.2" clip-path="url(#terminal-line-21)">
</text><text class="terminal-r15" x="122" y="556.8" textLength="97.6" clip-path="url(#terminal-line-22)">&#160;Backup&#160;</text><text class="terminal-r15" x="463.6" y="556.8" textLength="109.8" clip-path="url(#terminal-line-22)">&#160;Allowed&#160;</text><text class="terminal-r15" x="793" y="556.8" textLength="170.8" clip-path="url(#terminal-line-22)">&#160;Browser&#160;View&#160;</text><text class="terminal-r3" x="1781.2" y="556.8" textLength="12.2" clip-path="url(#terminal-line-22)">
</text><text class="terminal-r16" x="0" y="581.2" textLength="341.6" clip-path="url(#terminal-line-23)">▁▁▁▁▁▁▁▁▁▁▁▁▁▁▁▁▁▁▁▁▁▁▁▁▁▁▁▁</text><text class="terminal-r16" x="353.8" y="581.2" textLength="341.6" clip-path="url(#terminal-line-23)">▁▁▁▁▁▁▁▁▁▁▁▁▁▁▁▁▁▁▁▁▁▁▁▁▁▁▁▁</text><text class="terminal-r16" x="707.6" y="581.2" textLength="353.8" clip-path="url(#terminal-line-23)">▁▁▁▁▁▁▁▁▁▁▁▁▁▁▁▁▁▁▁▁▁▁▁▁▁▁▁▁▁</text><text class="terminal-r3" x="1781.2" y="581.2" textLength="12.2" clip-path="url(#terminal-line-23)">
</text><text class="terminal-r3" x="1781.2" y="605.6" textLength="12.2" clip-path="url(#terminal-line-24)">
</text><text class="terminal-r3" x="1781.2" y="630" textLength="12.2" clip-path="url(#terminal-line-25)">
</text><text class="terminal-r7" x="0" y="654.4" textLength="24.4" clip-path="url(#terminal-line-26)">╭─</text><text class="terminal-r17" x="24.4" y="654.4" textLength="341.6" clip-path="url(#terminal-line-26)">&#160;Programs&#160;Denied&#160;Most&#160;Often&#160;</text><text class="terminal-r7" x="366" y="654.4" textLength="1415.2" clip-path="url(#terminal-line-26)">───────────────────────────────────────────────────────────────────────────────────────────────────────────────────╮</text><text class="terminal-r3" x="1781.2" y="654.4" textLength="12.2" clip-path="url(#terminal-line-26)">
</text><text class="terminal-r7" x="0" y="678.8" textLength="12.2" clip-path="url(#terminal-line-27)">│</text><text class="terminal-r18" x="48.8" y="678.8" textLength="780.8" clip-path="url(#terminal-line-27)">1.&#160;/usr/bin/nano&#160;—&#160;3&#160;attempts&#160;&#160;&#160;&#160;2.&#160;/usr/bin/python3&#160;—&#160;1&#160;attempt</text><text class="terminal-r7" x="1769" y="678.8" textLength="12.2" clip-path="url(#terminal-line-27)">│</text><text class="terminal-r3" x="1781.2" y="678.8" textLength="12.2" clip-path="url(#terminal-line-27)">
</text><text class="terminal-r7" x="0" y="703.2" textLength="1781.2" clip-path="url(#terminal-line-28)">╰────────────────────────────────────────────────────────────────────────────────────────────────────────────────────────────────────────────────╯</text><text class="terminal-r3" x="1781.2" y="703.2" textLength="12.2" clip-path="url(#terminal-line-28)">
</text><text class="terminal-r3" x="1781.2" y="727.6" textLength="12.2" clip-path="url(#terminal-line-29)">
</text><text class="terminal-r3" x="1781.2" y="752" textLength="12.2" clip-path="url(#terminal-line-30)">
</text><text class="terminal-r3" x="1781.2" y="776.4" textLength="12.2" clip-path="url(#terminal-line-31)">
</text><text class="terminal-r3" x="1781.2" y="800.8" textLength="12.2" clip-path="url(#terminal-line-32)">
</text><text class="terminal-r3" x="1781.2" y="825.2" textLength="12.2" clip-path="url(#terminal-line-33)">
</text><text class="terminal-r3" x="1781.2" y="849.6" textLength="12.2" clip-path="url(#terminal-line-34)">
</text><text class="terminal-r3" x="1781.2" y="874" textLength="12.2" clip-path="url(#terminal-line-35)">
</text><text class="terminal-r3" x="1781.2" y="898.4" textLength="12.2" clip-path="url(#terminal-line-36)">
</text><text class="terminal-r3" x="1781.2" y="922.8" textLength="12.2" clip-path="url(#terminal-line-37)">
</text><text class="terminal-r3" x="1781.2" y="947.2" textLength="12.2" clip-path="url(#terminal-line-38)">
</text><text class="terminal-r3" x="1781.2" y="971.6" textLength="12.2" clip-path="url(#terminal-line-39)">
</text><text class="terminal-r3" x="1781.2" y="996" textLength="12.2" clip-path="url(#terminal-line-40)">
</text><text class="terminal-r3" x="1781.2" y="1020.4" textLength="12.2" clip-path="url(#terminal-line-41)">
</text><text class="terminal-r3" x="1781.2" y="1044.8" textLength="12.2" clip-path="url(#terminal-line-42)">
</text><text class="terminal-r3" x="1781.2" y="1069.2" textLength="12.2" clip-path="url(#terminal-line-43)">
</text><text class="terminal-r3" x="1781.2" y="1093.6" textLength="12.2" clip-path="url(#terminal-line-44)">
</text><text class="terminal-r3" x="1781.2" y="1118" textLength="12.2" clip-path="url(#terminal-line-45)">
</text><text class="terminal-r19" x="0" y="1142.4" textLength="12.2" clip-path="url(#terminal-line-46)">q</text><text class="terminal-r1" x="12.2" y="1142.4" textLength="61" clip-path="url(#terminal-line-46)">&#160;Quit</text><text class="terminal-r19" x="85.4" y="1142.4" textLength="12.2" clip-path="url(#terminal-line-46)">m</text><text class="terminal-r1" x="97.6" y="1142.4" textLength="146.4" clip-path="url(#terminal-line-46)">&#160;Mode&#160;Switch</text><text class="terminal-r19" x="256.2" y="1142.4" textLength="12.2" clip-path="url(#terminal-line-46)">a</text><text class="terminal-r1" x="268.4" y="1142.4" textLength="97.6" clip-path="url(#terminal-line-46)">&#160;Allowed</text><text class="terminal-r19" x="378.2" y="1142.4" textLength="12.2" clip-path="url(#terminal-line-46)">t</text><text class="terminal-r1" x="390.4" y="1142.4" textLength="146.4" clip-path="url(#terminal-line-46)">&#160;Maintenance</text><text class="terminal-r19" x="549" y="1142.4" textLength="12.2" clip-path="url(#terminal-line-46)">b</text><text class="terminal-r1" x="561.2" y="1142.4" textLength="85.4" clip-path="url(#terminal-line-46)">&#160;Backup</text><text class="terminal-r19" x="658.8" y="1142.4" textLength="12.2" clip-path="url(#terminal-line-46)">w</text><text class="terminal-r1" x="671" y="1142.4" textLength="97.6" clip-path="url(#terminal-line-46)">&#160;Browser</text><text class="terminal-r19" x="780.8" y="1142.4" textLength="12.2" clip-path="url(#terminal-line-46)">?</text><text class="terminal-r1" x="793" y="1142.4" textLength="61" clip-path="url(#terminal-line-46)">&#160;Help</text>
    </g>
    </g>
</svg>
