<svg width="32" height="32" viewBox="0 0 31 24" fill="none" xmlns="http://www.w3.org/2000/svg">
<path d="M28.7997 11.5022C31.4357 8.8662 31.4357 4.5923 28.7997 1.95628C26.1637 -0.67976 21.8898 -0.67976 19.2538 1.95628L15.4969 5.7132L11.7463 1.9626C9.11024 -0.67344 4.83638 -0.67344 2.20034 1.9626C-0.435693 4.5986 -0.435694 8.8725 2.20035 11.5085L14.1579 23.4661C14.8971 24.2053 16.0961 24.2058 16.8353 23.4666L19.8713 20.4307L7.55265 8.112C7.00812 8.3392 6.35681 8.2313 5.91374 7.7882C5.32795 7.2024 5.32795 6.2527 5.91374 5.6669C6.49952 5.0811 7.44927 5.0811 8.03506 5.6669C8.48159 6.1134 8.58774 6.7715 8.3535 7.3185L15.4986 14.4637L22.6475 7.3148C22.4154 6.7684 22.5221 6.1124 22.9676 5.6669C23.5534 5.0811 24.5031 5.0811 25.0889 5.6669C25.6747 6.2527 25.6747 7.2024 25.0889 7.7882C24.6435 8.2337 23.9875 8.3404 23.4412 8.1084L16.2923 15.2573L20.6684 19.6335L28.7997 11.5022Z" fill="url(#heart-gradient)"/>
<defs>
<linearGradient id="heart-gradient" x1="16" y1="0" x2="16" y2="24" gradientUnits="userSpaceOnUse">
<stop stop-color="#EA5150"/>
<stop offset="0.75" stop-color="#BB0C59"/>
<stop offset="1" stop-color="#AA024A"/>
</linearGradient>
</defs>
</svg>
